#!OML:ASF F:\VICON\USERDATA\INSTALL\rory3\rory3.ASF
:FULLY-SPECIFIED
:DEGREES
1198
root 2.21433 17.7849 14.4951 -100.944 -87.4557 108.058
lowerback 2.79761 0.820832 -5.90115
upperback -0.879579 0.888612 0.722686
thorax -2.58299 0.543008 4.0151
lowerneck -20.8446 -2.28679 -10.396
upperneck 31.3152 -1.7298 4.84598
head 14.4089 -1.52092 3.40599
rclavicle -7.45443e-016 -1.98785e-016
rhumerus -32.4473 -11.355 -74.0228
rradius 27.4328
rwrist 21.4257
rhand -19.7621 1.77627
rfingers 7.12502
rthumb 6.56947 -28.1018
lclavicle -7.45443e-016 -1.98785e-016
lhumerus -29.8572 15.7681 68.8954
lradius 32.0589
lwrist -0.30212
lhand -13.5661 29.2356
lfingers 7.12502
lthumb 12.5474 58.8389
rfemur -19.279 -16.522 18.1205
rtibia 43.3806
rfoot -29.4783 -14.0103
rtoes 15.0388
lfemur -12.9766 6.99979 -27.4551
ltibia 20.6952
lfoot -10.0062 15.5393
ltoes -12.0566
1199
root 2.2199 17.7801 14.4945 -115.448 -86.9534 122.523
lowerback 2.79339 0.787042 -6.24289
upperback -0.911758 0.83171 0.796244
thorax -2.61484 0.522568 4.28745
lowerneck -20.7277 -2.54642 -10.6212
upperneck 31.6281 -2.10301 4.89493
head 14.5674 -1.72299 3.40309
rclavicle 1.50082e-014 -3.97569e-015
rhumerus -32.4553 -11.3027 -73.8282
rradius 27.4717
rwrist 21.2985
rhand -19.2897 2.51556
rfingers 7.12502
rthumb 7.02549 -27.3478
lclavicle 1.50082e-014 -3.97569e-015
lhumerus -29.9506 15.3356 69.3943
lradius 32.3115
lwrist -0.0893895
lhand -13.4682 28.9629
lfingers 7.12502
lthumb 12.6419 58.5603
rfemur -18.9437 -16.7192 17.9013
rtibia 42.7324
rfoot -29.3946 -14.2835
rtoes 15.1006
lfemur -12.9524 7.10466 -27.6659
ltibia 20.7606
lfoot -10.0784 16.2365
ltoes -12.8111
1200
root 2.22644 17.7786 14.4926 -125.455 -86.3768 132.515
lowerback 2.8268 0.770815 -6.45404
upperback -0.990142 0.79723 0.804235
thorax -2.71478 0.51409 4.41616
lowerneck -20.5242 -2.81125 -10.8759
upperneck 31.944 -2.53223 5.05903
head 14.7181 -1.93843 3.44255
rclavicle -4.5472e-015 3.97569e-015
rhumerus -32.5567 -11.2978 -73.8192
rradius 27.5694
rwrist 21.4011
rhand -19.2072 2.5257
rfingers 7.12502
rthumb 7.10514 -27.335
lclavicle -4.5472e-015 3.97569e-015
lhumerus -29.9951 14.9258 69.8685
lradius 32.4878
lwrist 0.04534
lhand -13.8343 28.8485
lfingers 7.12502
lthumb 12.2889 58.4674
rfemur -18.6425 -17.0187 17.7476
rtibia 42.0259
rfoot -29.1693 -14.5057
rtoes 14.1827
lfemur -12.9644 7.40644 -27.8233
ltibia 20.8478
lfoot -10.1727 16.6629
ltoes -12.9976
1201
root 2.23052 17.7794 14.4927 -133.525 -85.754 140.58
lowerback 2.8057 0.748376 -6.5155
upperback -1.03795 0.764656 0.800989
thorax -2.74952 0.501177 4.44923
lowerneck -20.3291 -3.06338 -11.0361
upperneck 32.2669 -2.95412 5.1416
head 14.8735 -2.15109 3.4326
rclavicle 1.07095e-014 1.19271e-015
rhumerus -32.6071 -11.1443 -73.986
rradius 27.7441
rwrist 21.7038
rhand -19.2505 1.89308
rfingers 7.12502
rthumb 7.06339 -27.9691
lclavicle 1.07095e-014 1.19271e-015
lhumerus -30.009 14.5985 70.3512
lradius 32.7436
lwrist 0.368177
lhand -14.3928 28.848
lfingers 7.12502
lthumb 11.7504 58.4984
rfemur -18.2963 -16.9629 17.6188
rtibia 41.2307
rfoot -28.4168 -15.033
rtoes 14.8217
lfemur -13.0408 7.91557 -27.9234
ltibia 21.0255
lfoot -10.1702 16.9707
ltoes -13.8204
1202
root 2.23139 17.7756 14.4915 -141.126 -85.0743 148.2
lowerback 2.69139 0.707367 -6.48737
upperback -1.06161 0.720128 0.863297
thorax -2.70443 0.478265 4.50162
lowerneck -20.136 -3.23867 -11.0471
upperneck 32.5508 -3.25606 5.05242
head 14.9937 -2.31658 3.34485
rclavicle -9.81499e-015 -3.97569e-015
rhumerus -32.6214 -10.9965 -74.1072
rradius 27.8934
rwrist 22.0611
rhand -19.4228 1.63855
rfingers 7.12502
rthumb 6.89706 -28.2291
lclavicle -9.81499e-015 -3.97569e-015
lhumerus -30.0229 14.5004 70.7417
lradius 32.976
lwrist 0.452847
lhand -14.5334 28.7813
lfingers 7.12502
lthumb 11.6147 58.4394
rfemur -17.9071 -16.693 17.619
rtibia 40.325
rfoot -28.1561 -15.3622
rtoes 13.4863
lfemur -13.1762 8.12338 -27.8837
ltibia 21.3273
lfoot -10.1063 17.6701
ltoes -15.2899
1203
root 2.2272 17.7715 14.4917 -149.653 -84.3441 156.831
lowerback 2.43695 0.671116 -6.14962
upperback -1.11716 0.702739 0.973474
thorax -2.61247 0.463365 4.42831
lowerneck -19.9582 -3.40011 -11.0832
upperneck 32.9307 -3.57196 5.05092
head 15.1663 -2.4842 3.29741
rclavicle -4.62174e-015 -1.19271e-015
rhumerus -32.7155 -10.9531 -74.1701
rradius 27.9854
rwrist 22.4843
rhand -19.6604 2.15127
rfingers 7.12502
rthumb 6.6677 -27.7238
lclavicle -4.62174e-015 -1.19271e-015
lhumerus -30.1401 14.2134 71.0761
lradius 33.2942
lwrist 0.559507
lhand -14.5168 28.8221
lfingers 7.12502
lthumb 11.6308 58.4793
rfemur -17.5756 -16.4827 17.9259
rtibia 39.3426
rfoot -27.5023 -14.7472
rtoes 12.3376
lfemur -13.3823 8.12978 -27.5548
ltibia 21.7085
lfoot -10.4173 18.6485
ltoes -14.8191
